<!--?xml version="1.0" standalone="no"?-->
              <svg id="sw-js-blob-svg" viewBox="0 0 100 100" xmlns="http://www.w3.org/2000/svg" version="1.1">
                    <defs> 
                        <linearGradient id="sw-gradient" x1="0" x2="1" y1="1" y2="0">
                            <stop id="stop1" stop-color="rgba(68.788, 72.673, 177.653, 1)" offset="0%"></stop>
                            <stop id="stop2" stop-color="rgba(31, 178.196, 251, 1)" offset="100%"></stop>
                        </linearGradient>
                    </defs>
                <path fill="url(#sw-gradient)" d="M23,-28.1C30.8,-26,38.8,-20.6,40.2,-13.6C41.7,-6.7,36.7,1.8,32.7,9.5C28.7,17.3,25.7,24.3,20.4,26.7C15.1,29.1,7.6,26.9,0.7,25.9C-6.1,24.9,-12.2,25,-17.3,22.6C-22.4,20.1,-26.6,15,-29,9C-31.5,3,-32.4,-3.9,-30.6,-10.1C-28.8,-16.3,-24.3,-21.8,-18.8,-24.7C-13.2,-27.6,-6.6,-27.9,0.5,-28.5C7.6,-29.2,15.2,-30.3,23,-28.1Z" width="100%" height="100%" transform="translate(50 50)" stroke-width="0" style="transition: all 0.3s ease 0s;" stroke="url(#sw-gradient)"></path>
              </svg>