<!--?xml version="1.0" standalone="no"?-->
              <svg id="sw-js-blob-svg" viewBox="0 0 100 100" xmlns="http://www.w3.org/2000/svg" version="1.1">
                    <defs> 
                        <linearGradient id="sw-gradient" x1="0" x2="1" y1="1" y2="0">
                            <stop id="stop1" stop-color="rgba(68.788, 72.673, 177.653, 1)" offset="0%"></stop>
                            <stop id="stop2" stop-color="rgba(31, 178.196, 251, 1)" offset="100%"></stop>
                        </linearGradient>
                    </defs>
                <path fill="url(#sw-gradient)" d="M16.3,-25.5C23.4,-20.8,32.9,-20.1,36.3,-15.7C39.6,-11.3,36.7,-3.2,35.1,4.8C33.6,12.8,33.3,20.7,29.3,25.5C25.4,30.4,17.6,32,10.2,33.9C2.7,35.8,-4.5,37.8,-9.2,34.9C-13.9,31.9,-16.1,23.9,-21.9,18.3C-27.8,12.8,-37.2,9.8,-40.9,4.1C-44.6,-1.7,-42.4,-10,-38.9,-17.9C-35.5,-25.7,-30.7,-33,-24,-37.8C-17.3,-42.6,-8.6,-44.9,-2,-41.8C4.6,-38.7,9.2,-30.1,16.3,-25.5Z" width="100%" height="100%" transform="translate(50 50)" stroke-width="0" style="transition: all 0.3s ease 0s;"></path>
              </svg>