<svg xmlns="http://www.w3.org/2000/svg" version="1.1" xmlns:xlink="http://www.w3.org/1999/xlink" xmlns:svgjs="http://svgjs.dev/svgjs" viewBox="0 0 800 800"><defs><linearGradient x1="50%" y1="0%" x2="50%" y2="100%" id="uundulate-grad"><stop stop-color="hsl(230, 55%, 50%)" stop-opacity="1" offset="45%"></stop><stop stop-color="hsl(230, 55%, 70%)" stop-opacity="1" offset="100%"></stop></linearGradient></defs><g stroke-width="2" stroke="url(#uundulate-grad)" fill="none"><path d="M643.3676417481929 93.59292107966093C713.8023060596466 215.7105740433467 658.3078131267295 635.4894608617051 558.5596307069011 735.1090533421366C458.81144828707284 834.7286458225676 235.01103044447217 693.8846179494162 164.57636613301833 571.7669649857305C94.14170182156454 449.6493120220447 120.72505959209508 248.56391159687473 220.4732420119234 148.94431911644335C320.22142443175164 49.324726636011974 572.9329774367391 -28.524731884024902 643.3676417481929 93.59292107966093C713.8023060596466 215.7105740433467 658.3078131267295 635.4894608617051 558.5596307069011 735.1090533421366 "></path><path d="M632.3054762141842 107.52051973752793C699.5385648751172 224.08737029377346 646.5665488936962 624.7853986203883 551.3523747656784 719.8768278062544C456.1382006376605 814.9682569921208 242.5105290606325 680.5262303859308 175.27744039969934 563.9593798296852C108.04435173876612 447.39252927343966 133.41937506518167 255.44737432214106 228.6335491931996 160.35594513627478C323.8477233212175 65.26451595040845 565.0723875532509 -9.04633081871765 632.3054762141842 107.52051973752793C699.5385648751172 224.08737029377346 646.5665488936962 624.7853986203883 551.3523747656784 719.8768278062544 "></path><path d="M621.2433106801753 121.44811839539489C685.2748236905878 232.46416654420022 634.8252846606631 614.0813363790713 544.1451188244555 704.6446022703725C453.4649529882481 795.2078681616738 250.01002767679284 667.1678428224452 185.9785146663803 556.1517946736399C121.94700165596777 445.13574652483453 146.11369053826826 262.3308370474074 236.7938563744758 171.76757115610621C327.4740222106833 81.20430526480493 557.2117976697627 10.432070246589603 621.2433106801753 121.44811839539489C685.2748236905878 232.46416654420022 634.8252846606631 614.0813363790713 544.1451188244555 704.6446022703725 "></path><path d="M610.1811146285884 135.37571705326184C671.0110519884804 240.84096279462688 623.0839899100519 603.3772741377544 536.9378323656547 689.4123767344905C450.7916748212575 775.447479331227 257.50949577537506 653.8094552589596 196.67955841548314 548.3442095175947C135.84962105559123 442.8789637762295 158.80797549377672 269.2142997726738 244.95413303817384 183.1791971759376C331.100290582571 97.14409457920141 549.3511772686966 29.910471311896856 610.1811146285884 135.37571705326184C671.0110519884804 240.84096279462688 623.0839899100519 603.3772741377544 536.9378323656547 689.4123767344905 "></path><path d="M599.1189796121578 149.30331571112885C656.7473413215291 249.21775904505364 611.3427561945969 592.6732118964376 529.73060694201 674.1801511986089C448.11845768942317 755.68709050078 265.0090249091136 640.4510676954742 207.3806631997423 540.5366243615495C149.752301490371 440.6221810276246 171.50232148444144 276.09776249794015 253.11447073702823 194.59082319576902C334.72661998961496 113.08388389359789 541.4906179027864 49.38887237720405 599.1189796121578 149.30331571112885C656.7473413215291 249.21775904505364 611.3427561945969 592.6732118964376 529.73060694201 674.1801511986089 "></path><path d="M588.056814078149 163.2309143689958C642.4836001369997 257.5945552954803 599.6014919615636 581.9691496551209 522.5233510007872 658.9479256627269C445.4452100400108 735.9267016703329 272.5085235252739 627.0926801319886 218.08173746642325 532.729039205504C163.65495140757258 438.3653982790197 184.19663695752803 282.9812252232065 261.27477791830444 206.0024492156004C338.3529188790808 129.02367320799436 533.6300280192984 68.8672734425113 588.056814078149 163.2309143689958C642.4836001369997 257.5945552954803 599.6014919615636 581.9691496551209 522.5233510007872 658.9479256627269 "></path><path d="M576.9946485441403 177.15848250928468C628.2198589524703 265.97132102832893 587.8602277285304 571.2650568962258 515.3160950595645 643.7156696092668C442.77196239059845 716.1662823223078 280.0080221414343 613.7342620509248 228.78281173310427 524.9214235318807C177.55760132477423 436.10858501283644 196.89095243061462 289.8646574308947 269.43508509958065 217.4140447178537C341.9792177685466 144.96343200481272 525.7694381358102 88.34564399024043 576.9946485441403 177.15848250928468C628.2198589524703 265.97132102832893 587.8602277285304 571.2650568962258 515.3160950595645 643.7156696092668 "></path><path d="M565.9324830101315 191.08611168472976C613.9561177679409 274.3481477963337 576.1189634954973 560.561025172487 508.1088391183416 628.4834745909629C440.0987147411861 696.405924009439 287.50752075759465 600.3759050050176 239.48388599978523 517.1138688934135C191.4602512419758 433.85183278180955 209.5852679037012 296.74815067373913 277.59539228085686 228.8257012552632C345.60551665801245 160.90325183678732 517.9088482523221 107.82407557312581 565.9324830101315 191.08611168472976C613.9561177679409 274.3481477963337 576.1189634954973 560.561025172487 508.1088391183416 628.4834745909629 "></path><path d="M554.8703174761228 205.01367982501858C599.6923765834115 282.72491352918234 564.3776992624641 549.8569324135922 500.90158317711894 613.2512185375031C437.4254670917737 676.645504661414 295.00701937375504 587.0174869239538 250.1849602664662 509.30625321979005C205.36290115917745 431.5950195156265 222.2795833767878 303.6315828814274 285.75569946213307 240.2372967575165C349.2318155474783 176.84301063360567 510.048258368834 127.30244612085488 554.8703174761228 205.01367982501858C599.6923765834115 282.72491352918234 564.3776992624641 549.8569324135922 500.90158317711894 613.2512185375031 "></path><path d="M543.8081519421139 218.94126322409653C585.4286353988821 291.10169452081993 552.636435029431 539.1528549134862 493.69432723589614 598.018977742832C434.75221944236125 656.8851005721779 302.5065179899154 573.6590841016791 260.8860345331472 501.4986528049558C219.26555107637904 429.3382215082323 234.9738988498744 310.5150303479047 293.9160066434093 251.64890751855887C352.85811443694416 192.78278468921303 502.18766848534574 146.78083192737307 543.8081519421139 218.94126322409653C585.4286353988821 291.10169452081993 552.636435029431 539.1528549134862 493.69432723589614 598.018977742832 "></path><path d="M532.7459864081052 232.86886188196348C571.1648942143527 299.4784907712467 540.8951707963979 528.4487926721694 486.48707129467334 582.78675220695C432.0789717929489 637.1247117417308 310.0060166060757 560.3006965381937 271.5871087998282 493.6910676489106C233.16820099358063 427.0814387596274 247.66821432296098 317.39849307317104 302.0763138246855 263.06053353839025C356.48441332641 208.7225740036095 494.3270786018577 166.25923299268032 532.7459864081052 232.86886188196348C571.1648942143527 299.4784907712467 540.8951707963979 528.4487926721694 486.48707129467334 582.78675220695 "></path><path d="M521.6838208740965 246.7964605398305C556.9011530298233 307.85528702167335 529.1539065633647 517.7447304308525 479.27981535345054 567.5545266710683C429.4057241435364 617.3643229112838 317.50551522223606 546.9423089747081 282.2881830665092 485.88348249286526C247.07085091078227 424.8246560110224 260.36252979604757 324.28195579843737 310.2366210059617 274.4721595582217C360.1107122158758 224.662363318006 486.46648871836953 185.73763405798758 521.6838208740965 246.7964605398305C556.9011530298233 307.85528702167335 529.1539065633647 517.7447304308525 479.27981535345054 567.5545266710683 "></path><path d="M510.6216553400877 260.7240439389084C542.6374118452939 316.23206801331105 517.4126423303316 507.04065293074655 472.07255941222775 552.3222858763972C426.73247649412406 597.6039188220478 325.00501383839645 533.5839061524335 292.98925733319015 478.0758820780309C260.97350082798386 422.5678580036282 273.05684526913416 331.16540326491463 318.3969281872379 285.88377031926404C363.73701110534165 240.6021373736134 478.6058988348814 205.2160198645057 510.6216553400877 260.7240439389084C542.6374118452939 316.23206801331105 517.4126423303316 507.04065293074655 472.07255941222775 552.3222858763972 "></path><path d="M499.5594898060789 274.65164259677533C528.3736706607646 324.60886426373776 505.67137809729843 496.3365906894297 464.86530347100506 537.0900603405154C424.0592288447116 577.8435299916009 332.5045124545568 520.225518588948 303.6903315998711 470.26829692198567C274.8761507451855 420.3110752550233 285.75116074222075 338.048865990181 326.5572353685141 297.2953963390954C367.3633099948075 256.5419266880099 470.7453089513932 224.69442092981296 499.5594898060789 274.65164259677533C528.3736706607646 324.60886426373776 505.67137809729843 496.3365906894297 464.86530347100506 537.0900603405154 "></path><path d="M488.49732427207016 288.57924125464234C514.1099294762352 332.98566051416446 493.9301138642652 485.6325284481129 457.65804752978227 521.8578348046334C421.3859811952992 558.0831411611539 340.0040110707171 506.8671310254624 314.39140586655213 462.46071176594035C288.7788006623871 418.0542925064183 298.4454762153073 344.93232871544734 334.7175425497903 308.70702235892685C370.9896088842733 272.48171600240636 462.88471906790505 244.17282199512022 488.49732427207016 288.57924125464234C514.1099294762352 332.98566051416446 493.9301138642652 485.6325284481129 457.65804752978227 521.8578348046334 "></path><path d="M477.4351587380613 302.5068704300874C499.84618829170574 341.3624872821693 482.1888496312321 474.9284967243742 450.45079158855947 506.62563978632966C418.71273354588686 538.3227828482851 347.5035096868775 493.50877397955503 325.0924801332331 454.65315712747315C302.6814505795887 415.7975402753914 311.13979168839387 351.81582195829185 342.87784973106653 320.1186788963364C374.61590777373914 288.42153583438096 455.024129184417 263.6512535780056 477.4351587380613 302.5068704300874C499.84618829170574 341.3624872821693 482.1888496312321 474.9284967243742 450.45079158855947 506.62563978632966 "></path><path d="M466.3729932040526 316.43442331158724C485.58244710717634 349.7392377562288 470.44758539819895 464.2243887066902 443.24353564733667 491.3933684740805C416.03948589647445 518.5623482414709 355.00300830303786 480.15034063970234 335.7935543999141 446.84552619506076C316.5841004967903 413.5407117504192 323.83410716148046 358.699238907191 351.03815691234274 331.5302591398006C378.242206663205 304.36127937241025 447.16353930092885 283.1296088669456 466.3729932040526 316.43442331158724C485.58244710717634 349.7392377562288 470.44758539819895 464.2243887066902 443.24353564733667 491.3933684740805 "></path><path d="M455.31082767004386 330.3620219694542C471.3187059226469 358.1160340066555 458.7063211651658 453.5203264653733 436.0362797061139 476.1611429381986C413.36623824706203 498.801959411024 362.5025069191982 466.7919530762167 346.4946286665951 439.03794103901544C330.48675041399196 411.2839290018141 336.52842263456705 365.5827016324573 359.19846409361895 342.941885159632C381.86850555267085 320.30106868680673 439.3029494174407 302.60800993225286 455.31082767004386 330.3620219694542C471.3187059226469 358.1160340066555 458.7063211651658 453.5203264653733 436.0362797061139 476.1611429381986 "></path><path d="M444.2486621360351 344.28962062732114C457.0549647381176 366.49283025708223 446.9650569321326 442.81626422405645 428.82902376489113 460.9289174023167C410.6929905976496 479.04157058057694 370.0020055353586 453.4335655127312 357.19570293327604 431.2303558829702C344.38940033119354 409.02714625320914 349.22273810765364 372.46616435772364 367.35877127489516 354.35351117946345C385.4948044421367 336.24085800120315 431.4423595339525 322.0864109975601 444.2486621360351 344.28962062732114C457.0549647381176 366.49283025708223 446.9650569321326 442.81626422405645 428.82902376489113 460.9289174023167 "></path><path d="M433.1864966020263 358.21721928518815C442.79122355358817 374.86962650750894 435.2237926990995 432.11220198273963 421.62176782366834 445.6966918664348C408.0197429482372 459.28118175013 377.50150415151893 440.0751779492457 367.89677719995706 423.4227707269249C358.2920502483952 406.7703635046041 361.91705358074023 379.34962708299 375.51907845617137 365.7651371992948C389.1211033316025 352.18064731559963 423.5817696504644 341.56481206286736 433.1864966020263 358.21721928518815C442.79122355358817 374.86962650750894 435.2237926990995 432.11220198273963 421.62176782366834 445.6966918664348 "></path><path d="M422.1243310680175 372.14480268426604C428.5274823690588 383.2464074991466 423.4825284660663 421.4081244826337 414.41451188244554 430.4644510717638C405.34649529882483 439.52077766089394 385.00100276767927 426.7167751269711 378.597851466638 415.6151703120905C372.19470016559677 404.51356549721004 374.6113690538268 386.2330745494673 383.6793856374476 377.1767479603372C392.74740222106834 368.12042137120704 415.72117976697626 361.0431978693855 422.1243310680175 372.14480268426604C428.5274823690588 383.2464074991466 423.4825284660663 421.4081244826337 414.41451188244554 430.4644510717638 "></path><path d="M411.0621655340088 386.07240134213305C414.2637411845294 391.6232037495733 411.7412642330332 410.7040622413168 407.2072559412228 415.2322255358819C402.6732476494124 419.76038883044697 392.50050138383966 413.35838756348556 389.29892573331904 407.80758515604526C386.0973500827984 402.256782748605 387.3056845269134 393.1165372747337 391.8396928187238 388.58837398016857C396.37370111053417 384.0602106856035 407.86058988348816 380.52159893469275 411.0621655340088 386.07240134213305C414.2637411845294 391.6232037495733 411.7412642330332 410.7040622413168 407.2072559412228 415.2322255358819 "></path></g></svg>