<?xml version="1.0" standalone="no"?><svg xmlns:xlink="http://www.w3.org/1999/xlink" xmlns="http://www.w3.org/2000/svg" viewBox="0 0 1000 1000" preserveAspectRatio="xMaxYMax slice"><g transform="scale(2.680965147453083)"><rect x="0" y="0" width="373" height="373" fill="#ffffff"/><rect x="0" y="0" width="62.17" height="62.17" fill="#6c87ef"/><rect x="0" y="0" width="62.17" height="62.17" fill="#a9a9a9"/><rect x="62.17" y="0" width="62.17" height="62.17" fill="#e5e5e5"/><rect x="62.17" y="0" width="62.17" height="62.17" fill="#cfd8fa"/><rect x="124.33" y="0" width="62.17" height="62.17" fill="#a7b7f5"/><rect x="124.33" y="0" width="62.17" height="62.17" fill="#646464"/><rect x="186.5" y="0" width="62.17" height="62.17" fill="#abbaf6"/><rect x="186.5" y="0" width="62.17" height="62.17" fill="#7c94f1"/><rect x="248.67" y="0" width="62.17" height="62.17" fill="#b6c3f7"/><path d="M 248.67 62.17 A 62.17 62.17 0 0 1  310.84 0 L 248.67 62.17 A 62.17 62.17 0 0 0 310.84 0" fill="#bac6f8"/><rect x="310.83" y="0" width="62.17" height="62.17" fill="#d9d9d9"/><rect x="310.83" y="0" width="62.17" height="62.17" fill="#dbdbdb"/><rect x="0" y="62.17" width="62.17" height="62.17" fill="#939393"/><rect x="0" y="62.17" width="62.17" height="62.17" fill="#5c5c5c"/><rect x="62.17" y="62.17" width="62.17" height="62.17" fill="#bbc7f8"/><rect x="62.17" y="62.17" width="62.17" height="62.17" fill="#727272"/><rect x="124.33" y="62.17" width="62.17" height="62.17" fill="#738cf0"/><path d="M 124.33 124.34 A 62.17 62.17 0 0 1  186.5 62.17 L 124.33 124.34 A 62.17 62.17 0 0 0 186.5 62.17" fill="#898989"/><rect x="186.5" y="62.17" width="62.17" height="62.17" fill="#5d5d5d"/><path d="M 186.5 124.34 A 62.17 62.17 0 0 0 248.67000000000002 62.17 L 186.5 62.17" fill="#c7c7c7"/><rect x="248.67" y="62.17" width="62.17" height="62.17" fill="#b1b1b1"/><path d="M 248.67 124.34 A 62.17 62.17 0 0 0 310.84 62.17 L 248.67 62.17" fill="#93a7f3"/><rect x="310.83" y="62.17" width="62.17" height="62.17" fill="#7e7e7e"/><rect x="310.83" y="62.17" width="62.17" height="62.17" fill="#c4c4c4"/><rect x="0" y="124.33" width="62.17" height="62.17" fill="#7f97f1"/><polygon points="0,124.33 62.17,124.33 62.17,186.5" fill="#ced7fa"/><rect x="62.17" y="124.33" width="62.17" height="62.17" fill="#f0f0f0"/><path d="M 62.17 124.33 A 62.17 62.17 0 0 1  124.34 186.5 L 62.17 124.33 A 62.17 62.17 0 0 0 124.34 186.5" fill="#afafaf"/><rect x="124.33" y="124.33" width="62.17" height="62.17" fill="#d7d7d7"/><path d="M 124.33 124.33 A 62.17 62.17 0 0 0 186.5 186.5 L 186.5 124.33" fill="#d8d8d8"/><rect x="186.5" y="124.33" width="62.17" height="62.17" fill="#f0f0f0"/><rect x="186.5" y="124.33" width="62.17" height="62.17" fill="#8f8f8f"/><rect x="248.67" y="124.33" width="62.17" height="62.17" fill="#eaeefd"/><rect x="248.67" y="124.33" width="62.17" height="62.17" fill="#9b9b9b"/><rect x="310.83" y="124.33" width="62.17" height="62.17" fill="#ced7fa"/><rect x="310.83" y="124.33" width="62.17" height="62.17" fill="#d0d8fa"/><rect x="0" y="186.5" width="62.17" height="62.17" fill="#a7a7a7"/><path d="M 0 186.5 A 62.17 62.17 0 0 0 62.17 248.67000000000002 L 62.17 186.5" fill="#f9fafe"/><rect x="62.17" y="186.5" width="62.17" height="62.17" fill="#9a9a9a"/><path d="M 62.17 248.67000000000002 A 62.17 62.17 0 0 1  124.34 186.5 L 62.17 248.67000000000002 A 62.17 62.17 0 0 0 124.34 186.5" fill="#979797"/><rect x="124.33" y="186.5" width="62.17" height="62.17" fill="#7e96f1"/><rect x="124.33" y="186.5" width="62.17" height="62.17" fill="#9caef4"/><rect x="186.5" y="186.5" width="62.17" height="62.17" fill="#ccd5fa"/><polygon points="186.5,186.5 248.67000000000002,248.67000000000002 186.5,248.67000000000002" fill="#adbcf6"/><rect x="248.67" y="186.5" width="62.17" height="62.17" fill="#d8dffb"/><rect x="248.67" y="186.5" width="62.17" height="62.17" fill="#f5f7fe"/><rect x="310.83" y="186.5" width="62.17" height="62.17" fill="#797979"/><path d="M 310.83 248.67000000000002 A 62.17 62.17 0 0 0 373 186.5 L 310.83 186.5" fill="#d5dcfa"/><rect x="0" y="248.67" width="62.17" height="62.17" fill="#849bf2"/><rect x="0" y="248.67" width="62.17" height="62.17" fill="#a2a2a2"/><rect x="62.17" y="248.67" width="62.17" height="62.17" fill="#909090"/><rect x="62.17" y="248.67" width="62.17" height="62.17" fill="#a6a6a6"/><rect x="124.33" y="248.67" width="62.17" height="62.17" fill="#adbcf6"/><polygon points="186.5,248.67 186.5,310.84 124.33,310.84" fill="#fafbfe"/><rect x="186.5" y="248.67" width="62.17" height="62.17" fill="#9f9f9f"/><polygon points="186.5,248.67 248.67000000000002,248.67 186.5,310.84" fill="#a5b6f5"/><rect x="248.67" y="248.67" width="62.17" height="62.17" fill="#949494"/><polygon points="248.67,248.67 310.84,248.67 310.84,310.84" fill="#d8dffb"/><rect x="310.83" y="248.67" width="62.17" height="62.17" fill="#b9c6f7"/><path d="M 310.83 310.84 A 62.17 62.17 0 0 1  373 248.67 L 373 310.84" fill="#bfcbf8"/><rect x="0" y="310.83" width="62.17" height="62.17" fill="#c4cff9"/><polygon points="0,310.83 62.17,373 0,373" fill="#8ea3f3"/><rect x="62.17" y="310.83" width="62.17" height="62.17" fill="#8da2f3"/><rect x="62.17" y="310.83" width="62.17" height="62.17" fill="#aeaeae"/><rect x="124.33" y="310.83" width="62.17" height="62.17" fill="#9eaff4"/><polygon points="124.33,310.83 186.5,310.83 186.5,373" fill="#6d88ef"/><rect x="186.5" y="310.83" width="62.17" height="62.17" fill="#a7b7f6"/><rect x="186.5" y="310.83" width="62.17" height="62.17" fill="#adadad"/><rect x="248.67" y="310.83" width="62.17" height="62.17" fill="#7e7e7e"/><rect x="248.67" y="310.83" width="62.17" height="62.17" fill="#9baef4"/><rect x="310.83" y="310.83" width="62.17" height="62.17" fill="#8097f1"/><polygon points="310.83,310.83 373,373 310.83,373" fill="#dddddd"/></g></svg>