<?xml version="1.0" standalone="no"?><svg xmlns:xlink="http://www.w3.org/1999/xlink" xmlns="http://www.w3.org/2000/svg" viewBox="0 0 1000 1000" preserveAspectRatio="xMaxYMax slice"><g transform="scale(2.680965147453083)"><rect x="0" y="0" width="373" height="373" fill="#ffffff"/><circle cx="31.085" cy="31.085" r="31.085" fill="#6b86ef"/><circle cx="93.255" cy="31.085" r="31.085" fill="#6b86ef"/><rect x="124.33333333333333" y="0" width="62.166666666666664" height="62.166666666666664" fill="#ffffff"/><circle cx="139.87" cy="15.54" r="15.54" fill="#595959"/><circle cx="170.95999999999998" cy="15.54" r="15.54" fill="#595959"/><circle cx="139.87" cy="46.62" r="15.54" fill="#595959"/><circle cx="170.95999999999998" cy="46.62" r="15.54" fill="#6b86ef"/><circle cx="217.585" cy="31.085" r="31.085" fill="#595959"/><circle cx="279.755" cy="31.085" r="31.085" fill="#6b86ef"/><rect x="310.8333333333333" y="0" width="62.166666666666664" height="62.166666666666664" fill="#ffffff"/><circle cx="326.37" cy="15.54" r="15.54" fill="#6b86ef"/><circle cx="357.46000000000004" cy="15.54" r="15.54" fill="#6b86ef"/><circle cx="326.37" cy="46.62" r="15.54" fill="#595959"/><circle cx="357.46000000000004" cy="46.62" r="15.54" fill="#6b86ef"/><circle cx="31.085" cy="93.255" r="31.085" fill="#6b86ef"/><circle cx="93.255" cy="93.255" r="31.085" fill="#595959"/><circle cx="155.415" cy="93.255" r="31.085" fill="#6b86ef"/><circle cx="217.585" cy="93.255" r="31.085" fill="#6b86ef"/><circle cx="279.755" cy="93.255" r="31.085" fill="#6b86ef"/><rect x="310.8333333333333" y="62.166666666666664" width="62.166666666666664" height="62.166666666666664" fill="#ffffff"/><circle cx="326.37" cy="77.71000000000001" r="15.54" fill="#6b86ef"/><circle cx="357.46000000000004" cy="77.71000000000001" r="15.54" fill="#595959"/><circle cx="326.37" cy="108.78999999999999" r="15.54" fill="#595959"/><circle cx="357.46000000000004" cy="108.78999999999999" r="15.54" fill="#595959"/><circle cx="31.085" cy="155.415" r="31.085" fill="#6b86ef"/><circle cx="93.255" cy="155.415" r="31.085" fill="#6b86ef"/><circle cx="155.415" cy="155.415" r="31.085" fill="#595959"/><circle cx="217.585" cy="155.415" r="31.085" fill="#6b86ef"/><circle cx="279.755" cy="155.415" r="31.085" fill="#595959"/><circle cx="341.91499999999996" cy="155.415" r="31.085" fill="#6b86ef"/><circle cx="31.085" cy="217.585" r="31.085" fill="#6b86ef"/><circle cx="93.255" cy="217.585" r="31.085" fill="#595959"/><circle cx="155.415" cy="217.585" r="31.085" fill="#6b86ef"/><circle cx="217.585" cy="217.585" r="31.085" fill="#6b86ef"/><rect x="248.66666666666666" y="186.5" width="62.166666666666664" height="62.166666666666664" fill="#ffffff"/><circle cx="264.21" cy="202.04" r="15.54" fill="#595959"/><circle cx="295.29" cy="202.04" r="15.54" fill="#6b86ef"/><circle cx="264.21" cy="233.12" r="15.54" fill="#6b86ef"/><circle cx="295.29" cy="233.12" r="15.54" fill="#6b86ef"/><circle cx="341.91499999999996" cy="217.585" r="31.085" fill="#6b86ef"/><circle cx="31.085" cy="279.755" r="31.085" fill="#6b86ef"/><rect x="62.166666666666664" y="248.66666666666666" width="62.166666666666664" height="62.166666666666664" fill="#ffffff"/><circle cx="77.71000000000001" cy="264.21" r="15.54" fill="#6b86ef"/><circle cx="108.78999999999999" cy="264.21" r="15.54" fill="#595959"/><circle cx="77.71000000000001" cy="295.29" r="15.54" fill="#595959"/><circle cx="108.78999999999999" cy="295.29" r="15.54" fill="#6b86ef"/><rect x="124.33333333333333" y="248.66666666666666" width="62.166666666666664" height="62.166666666666664" fill="#ffffff"/><circle cx="139.87" cy="264.21" r="15.54" fill="#595959"/><circle cx="170.95999999999998" cy="264.21" r="15.54" fill="#595959"/><circle cx="139.87" cy="295.29" r="15.54" fill="#595959"/><circle cx="170.95999999999998" cy="295.29" r="15.54" fill="#6b86ef"/><circle cx="217.585" cy="279.755" r="31.085" fill="#6b86ef"/><circle cx="279.755" cy="279.755" r="31.085" fill="#595959"/><rect x="310.8333333333333" y="248.66666666666666" width="62.166666666666664" height="62.166666666666664" fill="#ffffff"/><circle cx="326.37" cy="264.21" r="15.54" fill="#6b86ef"/><circle cx="357.46000000000004" cy="264.21" r="15.54" fill="#6b86ef"/><circle cx="326.37" cy="295.29" r="15.54" fill="#6b86ef"/><circle cx="357.46000000000004" cy="295.29" r="15.54" fill="#595959"/><circle cx="31.085" cy="341.91499999999996" r="31.085" fill="#6b86ef"/><circle cx="93.255" cy="341.91499999999996" r="31.085" fill="#595959"/><rect x="124.33333333333333" y="310.8333333333333" width="62.166666666666664" height="62.166666666666664" fill="#ffffff"/><circle cx="139.87" cy="326.37" r="15.54" fill="#6b86ef"/><circle cx="170.95999999999998" cy="326.37" r="15.54" fill="#6b86ef"/><circle cx="139.87" cy="357.46000000000004" r="15.54" fill="#6b86ef"/><circle cx="170.95999999999998" cy="357.46000000000004" r="15.54" fill="#595959"/><circle cx="217.585" cy="341.91499999999996" r="31.085" fill="#6b86ef"/><circle cx="279.755" cy="341.91499999999996" r="31.085" fill="#6b86ef"/><circle cx="341.91499999999996" cy="341.91499999999996" r="31.085" fill="#595959"/></g></svg>